<svg xmlns="http://www.w3.org/2000/svg" width="64" height="64" viewBox="0 0 64 64" fill="none">
    <circle cx="32" cy="32" r="32" fill="#48484A" />
    <path
        d="M38.22 31C38.22 32.22 37.32 33.22 36.18 33.22C35.06 33.22 34.14 32.22 34.14 31C34.14 29.78 35.04 28.78 36.18 28.78C37.32 28.78 38.22 29.78 38.22 31ZM28.88 28.78C27.74 28.78 26.84 29.78 26.84 31C26.84 32.22 27.76 33.22 28.88 33.22C30.02 33.22 30.92 32.22 30.92 31C30.94 29.78 30.02 28.78 28.88 28.78ZM50 16.12V52C44.9614 47.5473 46.5728 49.0213 40.72 43.58L41.78 47.28H19.1C16.84 47.28 15 45.44 15 43.16V16.12C15 13.84 16.84 12 19.1 12H45.9C48.16 12 50 13.84 50 16.12ZM44.3 35.08C44.3 28.64 41.42 23.42 41.42 23.42C38.54 21.26 35.8 21.32 35.8 21.32L35.52 21.64C38.92 22.68 40.5 24.18 40.5 24.18C35.7491 21.5762 30.1684 21.5757 25.56 23.6C24.82 23.94 24.38 24.18 24.38 24.18C24.38 24.18 26.04 22.6 29.64 21.56L29.44 21.32C29.44 21.32 26.7 21.26 23.82 23.42C23.82 23.42 20.94 28.64 20.94 35.08C20.94 35.08 22.62 37.98 27.04 38.12C27.04 38.12 27.78 37.22 28.38 36.46C25.84 35.7 24.88 34.1 24.88 34.1C25.1742 34.3059 25.6594 34.5729 25.7 34.6C29.0758 36.4905 33.8709 37.1098 38.18 35.3C38.88 35.04 39.66 34.66 40.48 34.12C40.48 34.12 39.48 35.76 36.86 36.5C37.46 37.26 38.18 38.12 38.18 38.12C42.6 37.98 44.3 35.08 44.3 35.08Z"
        fill="#8E8E93" />
</svg>