<svg xmlns="http://www.w3.org/2000/svg" width="64" height="64" viewBox="0 0 64 64" fill="none">
    <circle cx="32" cy="32" r="32" fill="#48484A" />
    <path
        d="M24.7204 46.0391C24.7204 46.2294 24.5024 46.3816 24.2276 46.3816C23.9149 46.4101 23.697 46.2579 23.697 46.0391C23.697 45.8489 23.9149 45.6967 24.1897 45.6967C24.474 45.6682 24.7204 45.8204 24.7204 46.0391ZM21.7734 45.6111C21.7071 45.8013 21.8966 46.0201 22.1808 46.0772C22.4272 46.1723 22.7115 46.0772 22.7683 45.8869C22.8252 45.6967 22.6452 45.4779 22.3609 45.3923C22.1145 45.3257 21.8397 45.4209 21.7734 45.6111ZM25.9617 45.4494C25.6869 45.516 25.4974 45.6967 25.5258 45.9155C25.5542 46.1057 25.8006 46.2294 26.0849 46.1628C26.3597 46.0962 26.5492 45.9155 26.5208 45.7252C26.4923 45.5445 26.2365 45.4209 25.9617 45.4494ZM32.1968 9C19.0538 9 9 19.016 9 32.2089C9 42.7575 15.6141 51.7843 25.0615 54.9612C26.2744 55.18 26.7008 54.4286 26.7008 53.8103C26.7008 53.2206 26.6724 49.9675 26.6724 47.97C26.6724 47.97 20.0393 49.3968 18.6464 45.1355C18.6464 45.1355 17.5661 42.3676 16.0121 41.6542C16.0121 41.6542 13.8421 40.1608 16.1637 40.1893C16.1637 40.1893 18.5232 40.3796 19.8214 42.6434C21.8966 46.315 25.3742 45.2592 26.7292 44.6314C26.9472 43.1095 27.5631 42.0537 28.2454 41.4259C22.9484 40.8362 17.604 40.0657 17.604 30.9153C17.604 28.2995 18.3242 26.9869 19.8403 25.3128C19.594 24.6945 18.7885 22.1454 20.0867 18.8543C22.0671 18.236 26.625 21.4225 26.625 21.4225C28.5202 20.8898 30.5575 20.614 32.5758 20.614C34.5942 20.614 36.6315 20.8898 38.5266 21.4225C38.5266 21.4225 43.0845 18.2265 45.0649 18.8543C46.3631 22.1549 45.5577 24.6945 45.3113 25.3128C46.8274 26.9964 47.756 28.309 47.756 30.9153C47.756 40.0942 42.1748 40.8266 36.8778 41.4259C37.7496 42.1773 38.4887 43.6041 38.4887 45.8394C38.4887 49.0449 38.4603 53.0113 38.4603 53.7913C38.4603 54.4096 38.8962 55.161 40.0996 54.9422C49.5754 51.7843 56 42.7575 56 32.2089C56 19.016 45.3397 9 32.1968 9ZM18.2105 41.8064C18.0873 41.9015 18.1157 42.1203 18.2768 42.301C18.4284 42.4532 18.6464 42.5197 18.7696 42.3961C18.8927 42.301 18.8643 42.0822 18.7032 41.9015C18.5516 41.7493 18.3337 41.6827 18.2105 41.8064ZM17.1871 41.0359C17.1208 41.1596 17.2155 41.3117 17.405 41.4069C17.5567 41.502 17.7462 41.4734 17.8125 41.3403C17.8788 41.2166 17.7841 41.0644 17.5946 40.9693C17.405 40.9122 17.2534 40.9408 17.1871 41.0359ZM20.2573 44.4221C20.1056 44.5458 20.1625 44.8311 20.3804 45.0119C20.5984 45.2306 20.8732 45.2592 20.9964 45.107C21.1196 44.9833 21.0627 44.698 20.8732 44.5172C20.6647 44.2985 20.3804 44.2699 20.2573 44.4221ZM19.177 43.0239C19.0254 43.119 19.0254 43.3663 19.177 43.5851C19.3286 43.8038 19.5845 43.899 19.7077 43.8038C19.8593 43.6802 19.8593 43.4329 19.7077 43.2141C19.575 42.9953 19.3286 42.9002 19.177 43.0239Z"
        fill="#8E8E93" />
</svg>