<svg xmlns="http://www.w3.org/2000/svg" width="64" height="64" viewBox="0 0 64 64" fill="none">
    <circle cx="32" cy="32" r="32" fill="#48484A" />
    <path
        d="M48.2857 13H15.7058C14.2129 13 13 14.2299 13 15.7397V48.2603C13 49.7701 14.2129 51 15.7058 51H48.2857C49.7786 51 51 49.7701 51 48.2603V15.7397C51 14.2299 49.7786 13 48.2857 13ZM24.4848 45.5714H18.8527V27.4366H24.4933V45.5714H24.4848ZM21.6687 24.9598C19.8621 24.9598 18.4031 23.4924 18.4031 21.6942C18.4031 19.896 19.8621 18.4286 21.6687 18.4286C23.467 18.4286 24.9344 19.896 24.9344 21.6942C24.9344 23.5009 23.4754 24.9598 21.6687 24.9598ZM45.5969 45.5714H39.9647V36.75C39.9647 34.6464 39.9223 31.9406 37.0384 31.9406C34.1036 31.9406 33.654 34.2308 33.654 36.5973V45.5714H28.0219V27.4366H33.425V29.9134H33.5013C34.2562 28.4884 36.0969 26.9871 38.8366 26.9871C44.5366 26.9871 45.5969 30.7446 45.5969 35.6304V45.5714Z"
        fill="#8E8E93" />
</svg>