<svg xmlns="http://www.w3.org/2000/svg" width="64" height="64" viewBox="0 0 64 64" fill="none">
    <circle cx="32" cy="32" r="32" fill="#48484A" />
    <path
        d="M23.3889 45.5C21.5667 45.5 19.7444 43.925 18.8333 43.25C14.2778 40.1 12.9111 38.975 12 38.3V47.75C12 48.9924 13.02 50 14.2778 50H32.5C33.7578 50 34.7778 48.9924 34.7778 47.75V38.3C33.8667 38.975 32.5 40.1 27.9444 43.25C27.0333 43.925 25.2111 45.5 23.3889 45.5ZM32.5 32H14.2778C13.02 32 12 33.0076 12 34.25V35.375C13.8222 36.725 13.5944 36.725 20.2 41.45C20.8833 41.9 22.25 43.25 23.3889 43.25C24.5278 43.25 25.8944 41.9 26.5778 41.675C33.1833 36.95 32.9556 36.95 34.7778 35.6V34.25C34.7778 33.0076 33.7578 32 32.5 32ZM50.7222 25.25H27.9444C26.6867 25.25 25.6667 26.2576 25.6667 27.5V29.75H32.5C34.8639 29.75 36.8128 31.5373 37.0349 33.8155L37.0556 33.8V43.25H50.7222C51.98 43.25 53 42.2424 53 41V27.5C53 26.2576 51.98 25.25 50.7222 25.25ZM48.4444 34.25H43.8889V29.75H48.4444V34.25ZM23.3889 27.5C23.3889 25.0187 25.4325 23 27.9444 23H43.8889V16.25C43.8889 15.0076 42.8689 14 41.6111 14H18.8333C17.5756 14 16.5556 15.0076 16.5556 16.25V29.75H23.3889V27.5Z"
        fill="#8E8E93" />
</svg>