<svg xmlns="http://www.w3.org/2000/svg" width="64" height="64" viewBox="0 0 64 64" fill="none">
    <circle cx="32" cy="32" r="32" fill="#48484A" />
    <path
        d="M49.4773 22.9718C49.5052 23.3656 49.5052 23.7594 49.5052 24.1531C49.5052 36.1624 40.4316 50 23.8478 50C18.7386 50 13.9924 48.5093 10 45.9219C10.7259 46.0062 11.4238 46.0344 12.1777 46.0344C16.3933 46.0344 20.2741 44.6 23.3731 42.1532C19.4086 42.0688 16.0863 39.4531 14.9416 35.8531C15.5 35.9374 16.0584 35.9937 16.6447 35.9937C17.4543 35.9937 18.264 35.8812 19.0178 35.6844C14.8858 34.8406 11.7867 31.1844 11.7867 26.7687V26.6563C12.9872 27.3313 14.3833 27.7531 15.8629 27.8093C13.4339 26.178 11.8426 23.3937 11.8426 20.2437C11.8426 18.5562 12.2892 17.0093 13.071 15.6593C17.5101 21.1718 24.1828 24.7718 31.6649 25.1656C31.5254 24.4906 31.4416 23.7875 31.4416 23.0844C31.4416 18.0781 35.4619 14 40.4594 14C43.0558 14 45.401 15.0969 47.0482 16.8687C49.0862 16.475 51.0406 15.7156 52.7716 14.675C52.1015 16.7844 50.6776 18.5563 48.8071 19.6812C50.6219 19.4844 52.3808 18.9781 54 18.275C52.7718 20.075 51.2362 21.678 49.4773 22.9718Z"
        fill="#8E8E93" />
</svg>