<svg xmlns="http://www.w3.org/2000/svg" width="1920" height="125" viewBox="0 0 1920 125" fill="none">
    <path fill-rule="evenodd" clip-rule="evenodd"
        d="M0 54.1452L46.4 57.1532C91.2 60.1613 182.4 66.1774 273.6 63.1693C366.4 60.1613 457.6 48.129 548.8 54.1452C640 60.1613 731.2 84.2258 822.4 90.2419C913.6 96.2581 1006.4 84.2258 1097.6 93.25C1188.8 102.274 1280 132.355 1371.2 123.331C1462.4 114.306 1553.6 66.1774 1646.4 54.1452C1737.6 42.1129 1828.8 66.1774 1873.6 78.2097L1920 90.2419V0H1873.6C1828.8 0 1737.6 0 1646.4 0C1553.6 0 1462.4 0 1371.2 0C1280 0 1188.8 0 1097.6 0C1006.4 0 913.6 0 822.4 0C731.2 0 640 0 548.8 0C457.6 0 366.4 0 273.6 0C182.4 0 91.2 0 46.4 0H0V54.1452Z"
        fill="#1C1C1E" />
</svg>